<svg width="237" height="52" viewBox="0 0 237 52" fill="none" xmlns="http://www.w3.org/2000/svg">
<path fill-rule="evenodd" clip-rule="evenodd" d="M94.8734 1.02633C95.4319 0.728456 96.3814 0.374726 96.9958 0.244406C97.6101 0.114085 98.5224 0.00238404 99.0437 0.00238404C99.5463 -0.0162332 100.477 0.076853 101.092 0.188556C101.706 0.30026 102.842 0.691221 103.605 1.06357C104.61 1.54761 105.336 2.06889 106.193 2.9439C107.03 3.83753 107.608 4.63807 108.185 5.84819C108.632 6.76044 109.209 8.32428 109.451 9.29238C109.711 10.2605 110.009 11.8802 110.121 12.8669C110.214 13.8722 110.27 14.7658 110.214 14.8775C110.158 14.9893 108.669 15.0637 102.488 15.0637V14.3563C102.488 13.9839 102.358 13.0717 102.209 12.3642C102.041 11.6382 101.78 10.8004 101.594 10.5025C101.408 10.186 100.961 9.75781 100.608 9.51579C100.217 9.25515 99.6953 9.10621 99.2298 9.10621C98.8203 9.10621 98.2059 9.27376 97.8708 9.47855C97.5543 9.68334 97.1075 10.1674 96.9213 10.5397C96.7165 10.9307 96.4372 11.9546 96.2697 12.8297C96.1021 13.7047 95.8787 16.0504 95.7857 18.0425C95.6926 20.0345 95.5995 23.4787 95.5995 25.6755C95.5995 27.8724 95.6926 31.391 95.8043 33.4948C95.8974 35.5985 96.1021 37.8884 96.2325 38.6145C96.3814 39.3406 96.6607 40.3087 96.8841 40.7927C97.0889 41.2954 97.4984 41.8353 97.7777 42.0029C98.0942 42.2076 98.6527 42.338 99.2485 42.338C99.9559 42.338 100.365 42.2263 100.756 41.947C101.036 41.7236 101.464 41.1837 101.687 40.7369C101.929 40.2901 102.19 39.4523 102.302 38.8938C102.413 38.3353 102.488 36.4177 102.488 31.4469H99.3229V23.2553H110.307L110.233 31.391C110.177 37.6278 110.102 39.8805 109.879 40.9417C109.73 41.705 109.376 43.0082 109.097 43.8273C108.836 44.6465 108.334 45.7822 108.017 46.3407C107.682 46.8992 106.919 47.9045 106.304 48.5561C105.467 49.4311 104.796 49.9152 103.698 50.4551C102.711 50.9391 101.725 51.2556 100.812 51.3859C100.03 51.4976 98.9133 51.5349 98.299 51.4604C97.6846 51.3859 96.6793 51.1811 96.0649 50.995C95.4505 50.7902 94.4452 50.2875 93.8495 49.8407C93.2351 49.3939 92.3228 48.5375 91.8388 47.9231C91.3361 47.3088 90.6473 46.2662 90.3122 45.596C89.9585 44.9258 89.4558 43.6784 89.2138 42.8034C88.9531 41.9284 88.5808 40.2528 88.3946 39.0799C88.0967 37.181 88.0595 35.7102 88.0595 25.7686C88.0595 15.827 88.0967 14.3563 88.3946 12.4573C88.5808 11.2844 88.9531 9.62749 89.1952 8.7711C89.4372 7.93332 89.8654 6.79767 90.126 6.25777C90.4053 5.73649 90.9638 4.78701 91.4106 4.17264C91.8388 3.55827 92.5649 2.7205 93.0303 2.31092C93.4957 1.90134 94.3149 1.32421 94.8734 1.02633ZM6.79529 1.11942C7.46551 0.802925 8.37775 0.467815 8.84318 0.374729C9.30862 0.281642 10.3139 0.207174 11.0773 0.188556C11.8406 0.188556 13.0134 0.28164 13.6837 0.430578C14.3539 0.560899 15.4337 0.951862 16.1039 1.28697C16.83 1.65932 17.705 2.31092 18.3007 2.9439C18.8593 3.52104 19.5853 4.5636 19.9391 5.28968C20.2928 5.99713 20.7396 7.22587 20.9258 7.98917C21.1119 8.75248 21.3726 10.1488 21.4843 11.061C21.596 11.9733 21.6891 13.2578 21.6891 15.0637L13.9629 14.9706L13.8512 13.202C13.7768 11.8802 13.6464 11.2472 13.3299 10.6887C13.1065 10.2791 12.6783 9.79504 12.3805 9.60887C12.064 9.44132 11.4868 9.29238 11.0773 9.29238C10.6677 9.29238 10.0719 9.44132 9.75543 9.60887C9.42032 9.81366 9.01074 10.3349 8.69425 10.9679C8.24743 11.8988 8.2102 12.1781 8.2102 14.2259C8.22882 16.0318 8.28467 16.6276 8.58254 17.2978C8.78733 17.7632 9.25276 18.359 9.60649 18.6382C9.9416 18.8989 11.6172 19.8483 13.3113 20.742C15.0055 21.6356 16.7927 22.6409 17.314 22.976C17.8167 23.3112 18.6358 23.9814 19.1013 24.484C19.5667 24.9867 20.1811 25.8617 20.479 26.4202C20.7582 26.9787 21.1492 28.0772 21.3353 28.8405C21.5401 29.6038 21.7822 31.3352 21.8939 32.657C22.0242 34.1091 22.0614 36.306 21.9869 38.1491C21.9311 39.8433 21.7635 41.8539 21.6146 42.6172C21.4657 43.3805 21.1678 44.5162 20.9444 45.1305C20.7024 45.7449 20.2183 46.6944 19.846 47.2529C19.4736 47.8114 18.8034 48.5934 18.338 48.9843C17.8725 49.3753 16.9044 49.9896 16.197 50.3248C15.4895 50.6785 14.4284 51.0694 13.8698 51.1998C13.3113 51.3487 12.0081 51.4604 10.9842 51.4418C9.96022 51.4418 8.65701 51.3301 8.0985 51.1998C7.53998 51.0694 6.57188 50.7157 5.95751 50.4365C5.34315 50.1386 4.39367 49.5056 3.83515 49.0029C3.27663 48.5189 2.55056 47.6811 2.23407 47.1784C1.89896 46.6572 1.45214 45.7449 1.22874 45.1305C0.986713 44.5162 0.688837 43.4364 0.5399 42.7103C0.409579 41.9842 0.223407 40.3459 0 36.6597H7.91232V37.7767C7.91232 38.3911 8.00541 39.3406 8.11711 39.8619C8.28467 40.5693 8.52669 41.0348 9.01074 41.5188C9.4017 41.9284 9.96022 42.2635 10.3326 42.338C10.6863 42.4124 11.3007 42.4124 11.6916 42.3566C12.064 42.3007 12.6411 42.0215 12.9576 41.7236C13.2741 41.4443 13.665 40.8486 13.8326 40.3832C14.0746 39.7315 14.1491 38.9124 14.1491 36.6597C14.1491 34.6863 14.056 33.4762 13.8698 32.8432C13.6961 32.2226 13.3548 31.6641 12.8459 31.1676C12.3618 30.7022 10.7421 29.7155 8.39637 28.4681C5.71549 27.0532 4.41228 26.2341 3.59313 25.4894C2.84844 24.8005 2.2713 24.0558 1.88034 23.2553C1.54523 22.5851 1.11703 21.375 0.912244 20.5558C0.614369 19.3271 0.558517 18.359 0.558517 14.9706C0.558517 11.3217 0.614368 10.6887 0.986713 9.19929C1.22874 8.28705 1.75002 6.83491 2.14098 5.97851C2.6995 4.82424 3.22078 4.11679 4.22611 3.09284C5.15697 2.16198 5.97613 1.529 6.79529 1.11942ZM22.8992 7.52374C22.3407 4.04232 21.8752 1.04495 21.8752 0.858775C21.8752 0.560899 22.1731 0.542283 30.3461 0.635369L30.495 2.21783C30.5695 3.09284 30.9232 6.51841 31.2769 9.8509C31.6121 13.1834 32.3381 20.2393 32.8966 25.5452C33.4365 30.8325 33.9206 35.1703 33.9764 35.1703C34.0323 35.1703 35.1121 27.4069 38.7238 0.635369H47.2878L49.6149 17.8935C50.8995 27.3697 51.9793 35.1889 52.0352 35.2448C52.091 35.282 52.2399 34.2767 52.3703 32.9735C52.4475 32.2013 52.5901 30.8342 52.7438 29.3603C52.8495 28.3468 52.9605 27.2829 53.0591 26.3271C53.3011 23.9814 53.9714 17.3909 54.5485 11.7126C55.1256 6.03437 55.6283 1.19389 55.7586 0.542283H59.9475C63.8199 0.542283 64.1364 0.5609 64.1364 0.877393C64.1364 1.04495 62.3305 12.3642 60.1337 25.992C59.8277 27.8926 59.5293 29.7459 59.2423 31.5283C57.4688 42.544 56.131 50.8538 56.131 50.9019C56.131 50.9577 54.3065 50.9764 48.0325 50.9019L47.3622 46.1545C47.1369 44.6523 46.6766 41.3999 46.1345 37.5701C45.736 34.755 45.2934 31.6278 44.8675 28.6543C43.8808 21.6356 43.043 15.8643 42.9872 15.8084C42.95 15.7526 42.9127 15.7898 42.9127 15.9015C42.9127 15.9826 42.3335 20.1281 41.5101 26.0211C41.1996 28.2432 40.8544 30.7138 40.4925 33.3086C39.152 42.7848 38.035 50.6413 37.9791 50.753C37.9047 50.9391 36.918 50.995 29.8807 50.995L29.7876 50.3061C29.7317 49.9152 29.0615 45.7077 28.2982 40.9417C27.7969 37.8862 27.089 33.484 26.4296 29.3834C26.0605 27.0877 25.7065 24.8866 25.4125 23.0691C25.1773 21.6152 24.916 20.0016 24.6498 18.3575C23.9888 14.2755 23.2973 10.0056 22.8992 7.52374ZM70.6003 1.29018C70.6671 1.02116 70.7325 0.758225 70.7827 0.691221C70.8199 0.598135 72.5513 0.542283 78.3785 0.542283L79.5514 6.35086C79.7866 7.54053 80.2453 9.84287 80.836 12.8073C81.8351 17.822 83.2118 24.7313 84.5222 31.3538C86.626 41.9098 88.3388 50.6412 88.3388 50.7716C88.3388 50.9391 87.4079 50.995 84.3361 50.995C80.3334 50.995 80.3334 50.995 80.2403 50.5854C80.2279 50.5047 80.1906 50.2812 80.1368 49.9583C80.0292 49.3128 79.8555 48.2705 79.6817 47.1784C79.6302 46.8544 79.5794 46.5332 79.5298 46.2203C79.329 44.9513 79.1496 43.8179 79.0301 43.1757H70.187L69.7588 45.5401C69.7196 45.7717 69.6782 46.0159 69.6345 46.2735C69.4287 47.4864 69.1722 48.9978 68.8651 50.9019L64.8252 50.9577C62.6097 50.9764 60.7853 50.9764 60.7853 50.9577C60.7853 50.9382 60.923 50.2349 61.1398 49.1283C61.3371 48.1213 61.5998 46.7803 61.8837 45.3167C62.168 43.8949 62.7874 40.77 63.5757 36.7931C64.4905 32.1779 65.6328 26.4151 66.7428 20.8351C67.5395 16.7934 68.2884 12.9997 68.9093 9.85416C69.8843 4.91464 70.5438 1.57342 70.5779 1.38006C70.5854 1.3502 70.5928 1.32015 70.6003 1.29018ZM73.0724 24.8378C73.7985 20.2394 74.4501 16.3298 74.5059 16.1808C74.5618 16.0133 74.6921 16.2553 74.7666 16.7393C74.8423 17.1177 75.287 19.8579 75.8407 23.27C75.9682 24.0556 76.1015 24.8767 76.2373 25.7129C76.5495 27.6928 76.84 29.5204 77.0671 30.9495C77.3546 32.7588 77.5406 33.9291 77.5406 33.9603C77.5406 34.0161 76.2001 34.0534 71.583 34.0534L71.6575 33.6438C71.7134 33.4018 72.3463 29.4549 73.0724 24.8378Z" fill="#F8ED08"/>
<path fill-rule="evenodd" clip-rule="evenodd" d="M94.8734 1.02633C95.4319 0.728456 96.3814 0.374726 96.9958 0.244406C97.6101 0.114085 98.5224 0.00238404 99.0437 0.00238404C99.5463 -0.0162332 100.477 0.076853 101.092 0.188556C101.706 0.30026 102.842 0.691221 103.605 1.06357C104.61 1.54761 105.336 2.06889 106.193 2.9439C107.03 3.83753 107.608 4.63807 108.185 5.84819C108.632 6.76044 109.209 8.32428 109.451 9.29238C109.711 10.2605 110.009 11.8802 110.121 12.8669C110.214 13.8722 110.27 14.7658 110.214 14.8775C110.158 14.9893 108.669 15.0637 102.488 15.0637V14.3563C102.488 13.9839 102.358 13.0717 102.209 12.3642C102.041 11.6382 101.78 10.8004 101.594 10.5025C101.408 10.186 100.961 9.75781 100.608 9.51579C100.217 9.25515 99.6953 9.10621 99.2298 9.10621C98.8203 9.10621 98.2059 9.27376 97.8708 9.47855C97.5543 9.68334 97.1075 10.1674 96.9213 10.5397C96.7165 10.9307 96.4372 11.9546 96.2697 12.8297C96.1021 13.7047 95.8787 16.0504 95.7857 18.0425C95.6926 20.0345 95.5995 23.4787 95.5995 25.6755C95.5995 27.8724 95.6926 31.391 95.8043 33.4948C95.8974 35.5985 96.1021 37.8884 96.2325 38.6145C96.3814 39.3406 96.6607 40.3087 96.8841 40.7927C97.0889 41.2954 97.4984 41.8353 97.7777 42.0029C98.0942 42.2076 98.6527 42.338 99.2485 42.338C99.9559 42.338 100.365 42.2263 100.756 41.947C101.036 41.7236 101.464 41.1837 101.687 40.7369C101.929 40.2901 102.19 39.4523 102.302 38.8938C102.413 38.3353 102.488 36.4177 102.488 31.4469H99.3229V23.2553H110.307L110.233 31.391C110.177 37.6278 110.102 39.8805 109.879 40.9417C109.73 41.705 109.376 43.0082 109.097 43.8273C108.836 44.6465 108.334 45.7822 108.017 46.3407C107.682 46.8992 106.919 47.9045 106.304 48.5561C105.467 49.4311 104.796 49.9152 103.698 50.4551C102.711 50.9391 101.725 51.2556 100.812 51.3859C100.03 51.4976 98.9133 51.5349 98.299 51.4604C97.6846 51.3859 96.6793 51.1811 96.0649 50.995C95.4505 50.7902 94.4452 50.2875 93.8495 49.8407C93.2351 49.3939 92.3228 48.5375 91.8388 47.9231C91.3361 47.3088 90.6473 46.2662 90.3122 45.596C89.9585 44.9258 89.4558 43.6784 89.2138 42.8034C88.9531 41.9284 88.5808 40.2528 88.3946 39.0799C88.0967 37.181 88.0595 35.7102 88.0595 25.7686C88.0595 15.827 88.0967 14.3563 88.3946 12.4573C88.5808 11.2844 88.9531 9.62749 89.1952 8.7711C89.4372 7.93332 89.8654 6.79767 90.126 6.25777C90.4053 5.73649 90.9638 4.78701 91.4106 4.17264C91.8388 3.55827 92.5649 2.7205 93.0303 2.31092C93.4957 1.90134 94.3149 1.32421 94.8734 1.02633ZM6.79529 1.11942C7.46551 0.802925 8.37775 0.467815 8.84318 0.374729C9.30862 0.281642 10.3139 0.207174 11.0773 0.188556C11.8406 0.188556 13.0134 0.28164 13.6837 0.430578C14.3539 0.560899 15.4337 0.951862 16.1039 1.28697C16.83 1.65932 17.705 2.31092 18.3007 2.9439C18.8593 3.52104 19.5853 4.5636 19.9391 5.28968C20.2928 5.99713 20.7396 7.22587 20.9258 7.98917C21.1119 8.75248 21.3726 10.1488 21.4843 11.061C21.596 11.9733 21.6891 13.2578 21.6891 15.0637L13.9629 14.9706L13.8512 13.202C13.7768 11.8802 13.6464 11.2472 13.3299 10.6887C13.1065 10.2791 12.6783 9.79504 12.3805 9.60887C12.064 9.44132 11.4868 9.29238 11.0773 9.29238C10.6677 9.29238 10.0719 9.44132 9.75543 9.60887C9.42032 9.81366 9.01074 10.3349 8.69425 10.9679C8.24743 11.8988 8.2102 12.1781 8.2102 14.2259C8.22882 16.0318 8.28467 16.6276 8.58254 17.2978C8.78733 17.7632 9.25276 18.359 9.60649 18.6382C9.9416 18.8989 11.6172 19.8483 13.3113 20.742C15.0055 21.6356 16.7927 22.6409 17.314 22.976C17.8167 23.3112 18.6358 23.9814 19.1013 24.484C19.5667 24.9867 20.1811 25.8617 20.479 26.4202C20.7582 26.9787 21.1492 28.0772 21.3353 28.8405C21.5401 29.6038 21.7822 31.3352 21.8939 32.657C22.0242 34.1091 22.0614 36.306 21.9869 38.1491C21.9311 39.8433 21.7635 41.8539 21.6146 42.6172C21.4657 43.3805 21.1678 44.5162 20.9444 45.1305C20.7024 45.7449 20.2183 46.6944 19.846 47.2529C19.4736 47.8114 18.8034 48.5934 18.338 48.9843C17.8725 49.3753 16.9044 49.9896 16.197 50.3248C15.4895 50.6785 14.4284 51.0694 13.8698 51.1998C13.3113 51.3487 12.0081 51.4604 10.9842 51.4418C9.96022 51.4418 8.65701 51.3301 8.0985 51.1998C7.53998 51.0694 6.57188 50.7157 5.95751 50.4365C5.34315 50.1386 4.39367 49.5056 3.83515 49.0029C3.27663 48.5189 2.55056 47.6811 2.23407 47.1784C1.89896 46.6572 1.45214 45.7449 1.22874 45.1305C0.986713 44.5162 0.688837 43.4364 0.5399 42.7103C0.409579 41.9842 0.223407 40.3459 0 36.6597H7.91232V37.7767C7.91232 38.3911 8.00541 39.3406 8.11711 39.8619C8.28467 40.5693 8.52669 41.0348 9.01074 41.5188C9.4017 41.9284 9.96022 42.2635 10.3326 42.338C10.6863 42.4124 11.3007 42.4124 11.6916 42.3566C12.064 42.3007 12.6411 42.0215 12.9576 41.7236C13.2741 41.4443 13.665 40.8486 13.8326 40.3832C14.0746 39.7315 14.1491 38.9124 14.1491 36.6597C14.1491 34.6863 14.056 33.4762 13.8698 32.8432C13.6961 32.2226 13.3548 31.6641 12.8459 31.1676C12.3618 30.7022 10.7421 29.7155 8.39637 28.4681C5.71549 27.0532 4.41228 26.2341 3.59313 25.4894C2.84844 24.8005 2.2713 24.0558 1.88034 23.2553C1.54523 22.5851 1.11703 21.375 0.912244 20.5558C0.614369 19.3271 0.558517 18.359 0.558517 14.9706C0.558517 11.3217 0.614368 10.6887 0.986713 9.19929C1.22874 8.28705 1.75002 6.83491 2.14098 5.97851C2.6995 4.82424 3.22078 4.11679 4.22611 3.09284C5.15697 2.16198 5.97613 1.529 6.79529 1.11942ZM22.8992 7.52374C22.3407 4.04232 21.8752 1.04495 21.8752 0.858775C21.8752 0.560899 22.1731 0.542283 30.3461 0.635369L30.495 2.21783C30.5695 3.09284 30.9232 6.51841 31.2769 9.8509C31.6121 13.1834 32.3381 20.2393 32.8966 25.5452C33.4365 30.8325 33.9206 35.1703 33.9764 35.1703C34.0323 35.1703 35.1121 27.4069 38.7238 0.635369H47.2878L49.6149 17.8935C50.8995 27.3697 51.9793 35.1889 52.0352 35.2448C52.091 35.282 52.2399 34.2767 52.3703 32.9735C52.4475 32.2013 52.5901 30.8342 52.7438 29.3603C52.8495 28.3468 52.9605 27.2829 53.0591 26.3271C53.3011 23.9814 53.9714 17.3909 54.5485 11.7126C55.1256 6.03437 55.6283 1.19389 55.7586 0.542283H59.9475C63.8199 0.542283 64.1364 0.5609 64.1364 0.877393C64.1364 1.04495 62.3305 12.3642 60.1337 25.992C59.8277 27.8926 59.5293 29.7459 59.2423 31.5283C57.4688 42.544 56.131 50.8538 56.131 50.9019C56.131 50.9577 54.3065 50.9764 48.0325 50.9019L47.3622 46.1545C47.1369 44.6523 46.6766 41.3999 46.1345 37.5701C45.736 34.755 45.2934 31.6278 44.8675 28.6543C43.8808 21.6356 43.043 15.8643 42.9872 15.8084C42.95 15.7526 42.9127 15.7898 42.9127 15.9015C42.9127 15.9826 42.3335 20.1281 41.5101 26.0211C41.1996 28.2432 40.8544 30.7138 40.4925 33.3086C39.152 42.7848 38.035 50.6413 37.9791 50.753C37.9047 50.9391 36.918 50.995 29.8807 50.995L29.7876 50.3061C29.7317 49.9152 29.0615 45.7077 28.2982 40.9417C27.7969 37.8862 27.089 33.484 26.4296 29.3834C26.0605 27.0877 25.7065 24.8866 25.4125 23.0691C25.1773 21.6152 24.916 20.0016 24.6498 18.3575C23.9888 14.2755 23.2973 10.0056 22.8992 7.52374ZM70.6003 1.29018C70.6671 1.02116 70.7325 0.758225 70.7827 0.691221C70.8199 0.598135 72.5513 0.542283 78.3785 0.542283L79.5514 6.35086C79.7866 7.54053 80.2453 9.84287 80.836 12.8073C81.8351 17.822 83.2118 24.7313 84.5222 31.3538C86.626 41.9098 88.3388 50.6412 88.3388 50.7716C88.3388 50.9391 87.4079 50.995 84.3361 50.995C80.3334 50.995 80.3334 50.995 80.2403 50.5854C80.2279 50.5047 80.1906 50.2812 80.1368 49.9583C80.0292 49.3128 79.8555 48.2705 79.6817 47.1784C79.6302 46.8544 79.5794 46.5332 79.5298 46.2203C79.329 44.9513 79.1496 43.8179 79.0301 43.1757H70.187L69.7588 45.5401C69.7196 45.7717 69.6782 46.0159 69.6345 46.2735C69.4287 47.4864 69.1722 48.9978 68.8651 50.9019L64.8252 50.9577C62.6097 50.9764 60.7853 50.9764 60.7853 50.9577C60.7853 50.9382 60.923 50.2349 61.1398 49.1283C61.3371 48.1213 61.5998 46.7803 61.8837 45.3167C62.168 43.8949 62.7874 40.77 63.5757 36.7931C64.4905 32.1779 65.6328 26.4151 66.7428 20.8351C67.5395 16.7934 68.2884 12.9997 68.9093 9.85416C69.8843 4.91464 70.5438 1.57342 70.5779 1.38006C70.5854 1.3502 70.5928 1.32015 70.6003 1.29018ZM73.0724 24.8378C73.7985 20.2394 74.4501 16.3298 74.5059 16.1808C74.5618 16.0133 74.6921 16.2553 74.7666 16.7393C74.8423 17.1177 75.287 19.8579 75.8407 23.27C75.9682 24.0556 76.1015 24.8767 76.2373 25.7129C76.5495 27.6928 76.84 29.5204 77.0671 30.9495C77.3546 32.7588 77.5406 33.9291 77.5406 33.9603C77.5406 34.0161 76.2001 34.0534 71.583 34.0534L71.6575 33.6438C71.7134 33.4018 72.3463 29.4549 73.0724 24.8378Z" fill="black"/>
<path d="M172.675 7.72609C172.116 4.24467 171.651 1.24729 171.651 1.06112C171.651 0.763246 171.949 0.744629 180.122 0.837715L180.271 2.42018C180.345 3.29519 180.699 6.72076 181.053 10.0532C181.388 13.3857 182.114 20.4417 182.672 25.7476C183.212 31.0349 183.696 35.3727 183.752 35.3727C183.808 35.3727 184.888 27.6093 188.499 0.837715H197.063L199.391 18.0959C200.675 27.5721 201.755 35.3913 201.811 35.4471C201.867 35.4844 202.016 34.479 202.146 33.1758C202.276 31.8726 202.593 28.8753 202.835 26.5295C203.077 24.1837 203.747 17.5932 204.324 11.915C204.901 6.23671 205.404 1.39623 205.534 0.744629H209.723C213.595 0.744629 213.912 0.763247 213.912 1.07974C213.912 1.24729 212.106 12.5666 209.909 26.1944C207.712 39.8408 205.907 51.0484 205.907 51.1042C205.907 51.1601 204.082 51.1787 197.808 51.1042L197.138 46.3568C196.747 43.7504 195.648 35.8753 194.643 28.8566C193.656 21.8379 192.819 16.0666 192.763 16.0108C192.726 15.9549 192.688 15.9921 192.688 16.1038C192.688 16.2155 191.59 24.0348 190.268 33.511C188.928 42.9871 187.811 50.8436 187.755 50.9553C187.68 51.1415 186.694 51.1973 179.656 51.1973L179.563 50.5085C179.507 50.1175 178.837 45.91 178.074 41.144C177.292 36.378 176.007 28.3354 175.188 23.2715C174.369 18.2076 173.233 11.2075 172.675 7.72609Z" fill="#F8ED08"/>
<path d="M172.675 7.72609C172.116 4.24467 171.651 1.24729 171.651 1.06112C171.651 0.763246 171.949 0.744629 180.122 0.837715L180.271 2.42018C180.345 3.29519 180.699 6.72076 181.053 10.0532C181.388 13.3857 182.114 20.4417 182.672 25.7476C183.212 31.0349 183.696 35.3727 183.752 35.3727C183.808 35.3727 184.888 27.6093 188.499 0.837715H197.063L199.391 18.0959C200.675 27.5721 201.755 35.3913 201.811 35.4471C201.867 35.4844 202.016 34.479 202.146 33.1758C202.276 31.8726 202.593 28.8753 202.835 26.5295C203.077 24.1837 203.747 17.5932 204.324 11.915C204.901 6.23671 205.404 1.39623 205.534 0.744629H209.723C213.595 0.744629 213.912 0.763247 213.912 1.07974C213.912 1.24729 212.106 12.5666 209.909 26.1944C207.712 39.8408 205.907 51.0484 205.907 51.1042C205.907 51.1601 204.082 51.1787 197.808 51.1042L197.138 46.3568C196.747 43.7504 195.648 35.8753 194.643 28.8566C193.656 21.8379 192.819 16.0666 192.763 16.0108C192.726 15.9549 192.688 15.9921 192.688 16.1038C192.688 16.2155 191.59 24.0348 190.268 33.511C188.928 42.9871 187.811 50.8436 187.755 50.9553C187.68 51.1415 186.694 51.1973 179.656 51.1973L179.563 50.5085C179.507 50.1175 178.837 45.91 178.074 41.144C177.292 36.378 176.007 28.3354 175.188 23.2715C174.369 18.2076 173.233 11.2075 172.675 7.72609Z" fill="black"/>
<path d="M221.266 1.67549C221.936 1.359 222.848 1.02389 223.314 0.930801C223.779 0.837715 224.785 0.763246 225.548 0.744629C226.311 0.744629 227.484 0.837713 228.154 0.986651C228.825 1.11697 229.904 1.50793 230.575 1.84304C231.301 2.21539 232.176 2.86699 232.771 3.49998C233.33 4.07711 234.056 5.11968 234.41 5.84575C234.763 6.5532 235.21 7.78194 235.396 8.54525C235.583 9.30855 235.843 10.7048 235.955 11.6171C236.067 12.5293 236.16 13.8139 236.16 15.6198L228.434 15.5267L228.322 13.7581C228.247 12.4362 228.117 11.8033 227.801 11.2447C227.577 10.8352 227.149 10.3511 226.851 10.1649C226.535 9.99739 225.958 9.84845 225.548 9.84845C225.138 9.84845 224.543 9.99739 224.226 10.1649C223.891 10.3697 223.481 10.891 223.165 11.524C222.718 12.4549 222.681 12.7341 222.681 14.782C222.7 16.5879 222.755 17.1836 223.053 17.8539C223.258 18.3193 223.723 18.915 224.077 19.1943C224.412 19.4549 226.088 20.4044 227.782 21.298C229.476 22.1917 231.263 23.197 231.785 23.5321C232.287 23.8672 233.107 24.5374 233.572 25.0401C234.037 25.5428 234.652 26.4178 234.95 26.9763C235.229 27.5348 235.62 28.6332 235.806 29.3965C236.011 30.1598 236.253 31.8913 236.365 33.2131C236.495 34.6652 236.532 36.8621 236.458 38.7052C236.402 40.3993 236.234 42.41 236.085 43.1733C235.936 43.9366 235.638 45.0723 235.415 45.6866C235.173 46.301 234.689 47.2505 234.317 47.809C233.944 48.3675 233.274 49.1494 232.809 49.5404C232.343 49.9314 231.375 50.5457 230.668 50.8808C229.96 51.2346 228.899 51.6255 228.341 51.7558C227.782 51.9048 226.479 52.0165 225.455 51.9979C224.431 51.9979 223.128 51.8862 222.569 51.7558C222.011 51.6255 221.043 51.2718 220.428 50.9925C219.814 50.6947 218.864 50.0617 218.306 49.559C217.747 49.075 217.021 48.2372 216.705 47.7345C216.37 47.2132 215.923 46.301 215.699 45.6866C215.457 45.0723 215.16 43.9925 215.011 43.2664C214.88 42.5403 214.694 40.902 214.471 37.2158H222.383V38.3328C222.383 38.9472 222.476 39.8967 222.588 40.4179C222.755 41.1254 222.997 41.5908 223.481 42.0749C223.872 42.4845 224.431 42.8196 224.803 42.894C225.157 42.9685 225.771 42.9685 226.162 42.9127C226.535 42.8568 227.112 42.5775 227.428 42.2797C227.745 42.0004 228.136 41.4047 228.303 40.9392C228.545 40.2876 228.62 39.4685 228.62 37.2158C228.62 35.2424 228.527 34.0322 228.341 33.3992C228.167 32.7787 227.825 32.2202 227.317 31.7237C226.833 31.2583 225.213 30.2716 222.867 29.0242C220.186 27.6093 218.883 26.7901 218.064 26.0454C217.319 25.3566 216.742 24.6119 216.351 23.8114C216.016 23.1412 215.588 21.931 215.383 21.1119C215.085 19.8831 215.029 18.915 215.029 15.5267C215.029 11.8777 215.085 11.2447 215.457 9.75537C215.699 8.84312 216.221 7.39098 216.612 6.53459C217.17 5.38032 217.691 4.67286 218.697 3.64892C219.628 2.71805 220.447 2.08507 221.266 1.67549Z" fill="#F8ED08"/>
<path d="M221.266 1.67549C221.936 1.359 222.848 1.02389 223.314 0.930801C223.779 0.837715 224.785 0.763246 225.548 0.744629C226.311 0.744629 227.484 0.837713 228.154 0.986651C228.825 1.11697 229.904 1.50793 230.575 1.84304C231.301 2.21539 232.176 2.86699 232.771 3.49998C233.33 4.07711 234.056 5.11968 234.41 5.84575C234.763 6.5532 235.21 7.78194 235.396 8.54525C235.583 9.30855 235.843 10.7048 235.955 11.6171C236.067 12.5293 236.16 13.8139 236.16 15.6198L228.434 15.5267L228.322 13.7581C228.247 12.4362 228.117 11.8033 227.801 11.2447C227.577 10.8352 227.149 10.3511 226.851 10.1649C226.535 9.99739 225.958 9.84845 225.548 9.84845C225.138 9.84845 224.543 9.99739 224.226 10.1649C223.891 10.3697 223.481 10.891 223.165 11.524C222.718 12.4549 222.681 12.7341 222.681 14.782C222.7 16.5879 222.755 17.1836 223.053 17.8539C223.258 18.3193 223.723 18.915 224.077 19.1943C224.412 19.4549 226.088 20.4044 227.782 21.298C229.476 22.1917 231.263 23.197 231.785 23.5321C232.287 23.8672 233.107 24.5374 233.572 25.0401C234.037 25.5428 234.652 26.4178 234.95 26.9763C235.229 27.5348 235.62 28.6332 235.806 29.3965C236.011 30.1598 236.253 31.8913 236.365 33.2131C236.495 34.6652 236.532 36.8621 236.458 38.7052C236.402 40.3993 236.234 42.41 236.085 43.1733C235.936 43.9366 235.638 45.0723 235.415 45.6866C235.173 46.301 234.689 47.2505 234.317 47.809C233.944 48.3675 233.274 49.1494 232.809 49.5404C232.343 49.9314 231.375 50.5457 230.668 50.8808C229.96 51.2346 228.899 51.6255 228.341 51.7558C227.782 51.9048 226.479 52.0165 225.455 51.9979C224.431 51.9979 223.128 51.8862 222.569 51.7558C222.011 51.6255 221.043 51.2718 220.428 50.9925C219.814 50.6947 218.864 50.0617 218.306 49.559C217.747 49.075 217.021 48.2372 216.705 47.7345C216.37 47.2132 215.923 46.301 215.699 45.6866C215.457 45.0723 215.16 43.9925 215.011 43.2664C214.88 42.5403 214.694 40.902 214.471 37.2158H222.383V38.3328C222.383 38.9472 222.476 39.8967 222.588 40.4179C222.755 41.1254 222.997 41.5908 223.481 42.0749C223.872 42.4845 224.431 42.8196 224.803 42.894C225.157 42.9685 225.771 42.9685 226.162 42.9127C226.535 42.8568 227.112 42.5775 227.428 42.2797C227.745 42.0004 228.136 41.4047 228.303 40.9392C228.545 40.2876 228.62 39.4685 228.62 37.2158C228.62 35.2424 228.527 34.0322 228.341 33.3992C228.167 32.7787 227.825 32.2202 227.317 31.7237C226.833 31.2583 225.213 30.2716 222.867 29.0242C220.186 27.6093 218.883 26.7901 218.064 26.0454C217.319 25.3566 216.742 24.6119 216.351 23.8114C216.016 23.1412 215.588 21.931 215.383 21.1119C215.085 19.8831 215.029 18.915 215.029 15.5267C215.029 11.8777 215.085 11.2447 215.457 9.75537C215.699 8.84312 216.221 7.39098 216.612 6.53459C217.17 5.38032 217.691 4.67286 218.697 3.64892C219.628 2.71805 220.447 2.08507 221.266 1.67549Z" fill="black"/>
<path d="M144.331 0.780762V51.2335H136.557L124.325 21.1304H124.084V51.2335H116.73V0.780762H124.084L136.267 32.5108H136.557V0.780762H144.331Z" fill="#F8ED08"/>
<path d="M144.331 0.780762V51.2335H136.557L124.325 21.1304H124.084V51.2335H116.73V0.780762H124.084L136.267 32.5108H136.557V0.780762H144.331Z" fill="black"/>
<path d="M147.448 0.744629V51.1973H169.748V42.4025H154.425V30.3561H168.54V21.5613H154.425V9.53935H169.684V0.744629H147.448Z" fill="#F8ED08"/>
<path d="M147.448 0.744629V51.1973H169.748V42.4025H154.425V30.3561H168.54V21.5613H154.425V9.53935H169.684V0.744629H147.448Z" fill="black"/>
</svg>
