<svg width="8" height="16" viewBox="0 0 8 16" fill="none" xmlns="http://www.w3.org/2000/svg">
<path d="M7.90841 7.94771C7.89479 7.79084 7.83173 7.64234 7.72831 7.5236L1.77912 0.644858C1.7162 0.567408 1.63833 0.503414 1.55015 0.456687C1.46197 0.40996 1.36529 0.381456 1.26587 0.372873C1.16645 0.36429 1.06631 0.375803 0.971433 0.406727C0.876554 0.43765 0.788872 0.487352 0.713603 0.552871C0.638333 0.618391 0.577015 0.698388 0.533308 0.788098C0.4896 0.877809 0.464392 0.975398 0.459188 1.07505C0.453983 1.17471 0.468897 1.27439 0.503022 1.36817C0.537147 1.46194 0.589795 1.54789 0.657831 1.6209L6.18292 8.01162L0.657831 14.4023C0.589795 14.4754 0.537136 14.5613 0.50301 14.6551C0.468885 14.7489 0.453984 14.8485 0.459188 14.9482C0.464392 15.0478 0.4896 15.1454 0.533308 15.2351C0.577015 15.3249 0.638333 15.4049 0.713603 15.4704C0.788873 15.5359 0.876553 15.5856 0.971433 15.6165C1.06631 15.6474 1.16645 15.659 1.26587 15.6504C1.36529 15.6418 1.46197 15.6133 1.55015 15.5666C1.63833 15.5198 1.7162 15.4558 1.77912 15.3784L7.72831 8.49964C7.79381 8.42442 7.8435 8.33679 7.87444 8.24197C7.90538 8.14715 7.91694 8.04708 7.90841 7.94771Z" fill="black"/>
</svg>
