<svg width="8" height="16" viewBox="0 0 8 16" fill="none" xmlns="http://www.w3.org/2000/svg">
<path d="M0.460728 8.07573C0.474353 8.2326 0.537415 8.3811 0.64083 8.49983L6.59002 15.3786C6.65294 15.456 6.73081 15.52 6.81899 15.5668C6.90717 15.6135 7.00385 15.642 7.10327 15.6506C7.20269 15.6591 7.30283 15.6476 7.39771 15.6167C7.49259 15.5858 7.58027 15.5361 7.65554 15.4706C7.73081 15.405 7.79213 15.325 7.83583 15.2353C7.87954 15.1456 7.90475 15.048 7.90995 14.9484C7.91516 14.8487 7.90024 14.749 7.86612 14.6553C7.83199 14.5615 7.77935 14.4755 7.71131 14.4025L2.18622 8.01182L7.71131 1.62109C7.77935 1.54809 7.832 1.46214 7.86613 1.36836C7.90026 1.27459 7.91516 1.1749 7.90995 1.07525C7.90475 0.975591 7.87954 0.878001 7.83583 0.788289C7.79213 0.698579 7.73081 0.618581 7.65554 0.553062C7.58027 0.487542 7.49259 0.437841 7.39771 0.406917C7.30283 0.375994 7.20269 0.364481 7.10327 0.373064C7.00385 0.381647 6.90717 0.410153 6.81899 0.45688C6.73081 0.503607 6.65294 0.567601 6.59002 0.645051L0.64083 7.5238C0.575334 7.59902 0.525642 7.68664 0.494701 7.78146C0.463761 7.87628 0.452205 7.97636 0.460728 8.07573Z" fill="black"/>
</svg>
