<svg width="56" height="28" viewBox="0 0 56 28" fill="none" xmlns="http://www.w3.org/2000/svg">
<path fill-rule="evenodd" clip-rule="evenodd" d="M6.39693 0.413465C6.33077 0.404419 5.84282 0.440603 5.32178 0.485832C4.80074 0.540106 4.09776 0.657701 3.77521 0.757206C3.44439 0.856709 2.93989 1.06476 2.6587 1.22759C2.36923 1.38136 1.9309 1.73415 1.67451 2.01457C1.33542 2.39449 1.18655 2.64778 1.07903 3.01865C0.98806 3.33526 0.930176 3.81468 0.930176 4.3303C0.930176 4.79163 0.98806 5.37961 1.0625 5.68716C1.12866 5.98568 1.26926 6.39274 1.36023 6.59174C1.45948 6.79075 1.68279 7.17972 1.87301 7.4511C2.05496 7.72247 2.4354 8.20189 2.70832 8.5185C2.98952 8.8351 3.49401 9.32357 3.8331 9.60399C4.17218 9.88441 4.46992 10.1467 4.49474 10.1739C4.51782 10.2075 4.84159 10.4526 5.23292 10.7489L5.32178 10.8161C5.75184 11.1327 6.40521 11.585 6.76911 11.8112C7.13301 12.0373 7.81945 12.4444 9.16754 13.2042L8.34049 13.2675C7.88562 13.3037 7.23225 13.4123 6.89316 13.5118C6.55407 13.6113 6.09093 13.7922 5.85936 13.9098C5.63606 14.0364 5.26388 14.3259 5.04885 14.5701C4.82555 14.8053 4.61052 15.1491 4.55262 15.3209C4.503 15.4928 4.46165 15.918 4.46165 16.2707C4.46165 16.7502 4.51128 17.0215 4.66842 17.4015C4.7842 17.6909 5.08193 18.1251 5.3714 18.4417C5.63605 18.7402 6.08266 19.1473 6.35558 19.3463C6.62851 19.5363 7.18263 19.871 7.59615 20.0881C8.00968 20.2961 8.65477 20.5946 9.04348 20.7484C9.43219 20.9022 10.16 21.1464 10.6562 21.2912C11.1524 21.4269 11.7893 21.5897 12.0622 21.6439C12.3351 21.6982 13.2283 21.8068 14.0471 21.8882C14.8659 21.9606 16.1643 22.0601 16.9418 22.1053C17.2135 22.1211 17.5288 22.1391 17.8501 22.157L17.7976 22.2425C17.3427 22.9933 16.8547 23.8256 16.7059 24.097C16.6519 24.1953 16.5969 24.296 16.5467 24.3878C16.4583 24.5496 16.3849 24.6841 16.3585 24.7303C16.3171 24.8026 16.16 25.0921 16.0194 25.3635C15.8788 25.6349 15.5975 26.2048 15.3908 26.63C15.1923 27.0552 15.0517 27.417 15.0765 27.4442C15.1013 27.4713 15.2915 27.4261 15.4983 27.3537C15.7547 27.2633 15.9615 27.1004 16.1434 26.8562C16.2923 26.6572 16.4577 26.4129 16.4991 26.3134C16.5487 26.2139 16.6397 26.0691 16.7059 25.9968C16.7638 25.9244 16.9044 25.7163 17.0202 25.5444C17.1277 25.3726 17.4006 24.9836 17.6239 24.685C17.7406 24.523 17.8622 24.3584 17.9569 24.2301C18.0367 24.122 18.0975 24.0396 18.1202 24.0065C18.1781 23.9342 18.3104 23.7442 18.4097 23.5995C18.5172 23.4547 18.7984 23.0838 19.03 22.7853C19.1314 22.6629 19.2905 22.4678 19.4741 22.2416C19.6217 22.2503 19.7749 22.259 19.9258 22.2676C20.3983 22.2944 20.8486 22.32 21.0356 22.3405C21.2837 22.3586 24.2197 22.4128 27.5527 22.449C27.7055 22.4507 27.8594 22.1291 28.0103 21.8136C28.1555 21.51 28.298 21.2122 28.4342 21.2135C28.5693 21.2122 28.7033 21.5105 28.8399 21.8145C28.9818 22.1303 29.1264 22.4523 29.2778 22.4506C32.611 22.4144 35.5472 22.3601 35.7954 22.342C35.9824 22.3215 36.4327 22.2959 36.9053 22.2691C37.0566 22.2605 37.2102 22.2517 37.3582 22.243C37.5408 22.4679 37.6989 22.6619 37.7998 22.7837C38.0314 23.0822 38.3126 23.4531 38.4201 23.5978C38.5194 23.7426 38.6517 23.9325 38.7096 24.0049C38.7323 24.038 38.793 24.1203 38.8729 24.2284C38.9676 24.3567 39.0891 24.5214 39.2058 24.6833C39.4291 24.9818 39.702 25.3708 39.8095 25.5427C39.9253 25.7146 40.0659 25.9226 40.1238 25.995C40.19 26.0673 40.281 26.2121 40.3306 26.3116C40.3719 26.4111 40.5373 26.6553 40.6862 26.8543C40.8682 27.0986 41.0749 27.2614 41.3313 27.3518C41.5381 27.4242 41.7283 27.4694 41.7531 27.4423C41.7779 27.4152 41.6373 27.0533 41.4388 26.6282C41.2321 26.203 40.9509 25.6331 40.8103 25.3618C40.6697 25.0904 40.5125 24.8009 40.4712 24.7286C40.4448 24.6824 40.3713 24.548 40.283 24.3863C40.2328 24.2944 40.1777 24.1937 40.1238 24.0954C39.9749 23.824 39.487 22.9918 39.0321 22.241L38.9815 22.1585C39.3027 22.1406 39.6178 22.1226 39.8895 22.1068C40.667 22.0616 41.9656 21.9621 42.7844 21.8897C43.6032 21.8083 44.4965 21.6997 44.7694 21.6454C45.0424 21.5911 45.6792 21.4283 46.1755 21.2926C46.6718 21.1479 47.3996 20.9036 47.7884 20.7498C48.1771 20.596 48.8222 20.2975 49.2358 20.0894C49.6493 19.8723 50.2035 19.5376 50.4764 19.3476C50.7494 19.1486 51.196 18.7415 51.4607 18.443C51.7502 18.1264 52.0479 17.6921 52.1637 17.4027C52.3209 17.0227 52.3705 16.7513 52.3705 16.2719C52.3705 15.919 52.3292 15.4939 52.2795 15.322C52.2216 15.1501 52.0066 14.8063 51.7833 14.5711C51.5682 14.3269 51.196 14.0374 50.9727 13.9107C50.7411 13.7931 50.2779 13.6122 49.9388 13.5127C49.5997 13.4132 48.9463 13.3046 48.4914 13.2684L47.6643 13.2051C49.0125 12.4452 49.699 12.0381 50.0629 11.812C50.4268 11.5858 51.0802 11.1335 51.5103 10.8169L51.5995 10.7493L51.5996 10.7492C51.9908 10.4531 52.3143 10.2082 52.3374 10.1746C52.3622 10.1474 52.66 9.88507 52.9991 9.60463C53.3382 9.32419 53.8427 8.83569 54.124 8.51906C54.3969 8.20244 54.7774 7.72298 54.9593 7.45158C55.1496 7.18019 55.3729 6.79119 55.4721 6.59217C55.5631 6.39315 55.7037 5.98606 55.7699 5.68753C55.8443 5.37995 55.9022 4.79193 55.9022 4.33057C55.9022 3.81492 55.8443 3.33546 55.7534 3.01884C55.6458 2.64793 55.4969 2.39463 55.1578 2.01468C54.9014 1.73424 54.4631 1.38143 54.1736 1.22764C53.8924 1.06481 53.3878 0.856739 53.057 0.757229C52.7344 0.657719 52.0314 0.540115 51.5103 0.485836C50.9892 0.440605 50.5013 0.404419 50.4351 0.413465C50.4047 0.413465 50.2783 0.423014 50.0951 0.436846C49.8796 0.453119 49.5856 0.475323 49.2771 0.494883C48.7064 0.540115 47.747 0.639626 47.1432 0.711998C46.5477 0.784369 45.3898 0.992437 44.5792 1.16432C43.7769 1.34525 42.7017 1.60759 42.2054 1.75234C41.7092 1.89708 40.9069 2.15038 40.4272 2.32226C39.9474 2.49414 39.2609 2.75649 38.897 2.91028C38.5331 3.05502 37.8631 3.34451 37.4082 3.56162C36.9533 3.76969 36.0766 4.22201 35.4645 4.55673C34.8525 4.89145 33.9344 5.42519 33.4381 5.75086C32.9419 6.06748 32.4373 6.39315 32.3298 6.46552C32.214 6.5379 31.602 6.97212 30.9651 7.44254C30.32 7.91295 29.4846 8.56429 29.0958 8.88997C28.702 9.21992 28.1285 9.21934 27.7347 8.88938C27.346 8.56373 26.5107 7.91243 25.8656 7.44205C25.2287 6.97167 24.6167 6.53747 24.5009 6.4651C24.3934 6.39274 23.8889 6.06709 23.3927 5.75049C22.8965 5.42484 21.9785 4.89113 21.3664 4.55644C20.7544 4.22175 19.8778 3.76945 19.4229 3.5614C18.968 3.3443 18.2981 3.05484 17.9342 2.9101C17.5703 2.75633 16.8839 2.494 16.4042 2.32213C15.9245 2.15026 15.1223 1.89698 14.626 1.75224C14.1298 1.60751 13.0546 1.34518 12.2524 1.16427C11.4419 0.992395 10.284 0.784342 9.68857 0.711977C9.08483 0.63961 8.12547 0.540106 7.5548 0.494877C7.24635 0.475319 6.95239 0.453119 6.73693 0.436846C6.55377 0.423014 6.42734 0.413465 6.39693 0.413465ZM24.8819 19.4382C25.3781 19.5558 26.2052 19.7367 26.7014 19.8362C26.944 19.8848 27.2517 19.9443 27.5533 20.0008C27.686 20.0257 27.7719 19.8148 27.8709 19.5719C27.9968 19.2631 28.1437 18.9025 28.4347 18.9094C28.7184 18.9161 28.8542 19.2703 28.9707 19.5741C29.0637 19.8168 29.1444 20.0273 29.2783 20.0022C29.5799 19.9456 29.8877 19.8862 30.1302 19.8375C30.6265 19.738 31.4536 19.5571 31.9499 19.4395C32.4461 19.3128 33.1409 19.1319 33.48 19.0324C33.6842 18.967 34.0085 18.859 34.3389 18.7459L34.3102 18.7145C33.5245 17.8642 32.4411 16.7425 31.9035 16.2088C31.3577 15.6842 30.3818 14.7615 29.7201 14.1735C28.9752 13.5116 27.8562 13.5125 27.1113 14.1745C26.4496 14.7625 25.4737 15.6852 24.9278 16.2099C24.3902 16.7437 23.3067 17.8654 22.5209 18.7158L22.4942 18.745C22.8242 18.858 23.1479 18.9658 23.3519 19.0311C23.691 19.1306 24.3857 19.3115 24.8819 19.4382ZM18.646 16.8058C18.9355 17.041 19.5888 17.4571 20.085 17.7195C20.2439 17.8034 20.4341 17.8976 20.6351 17.9928C20.9676 17.547 21.7066 16.6094 22.3141 15.8662C22.9427 15.0972 23.8608 14.0116 24.3488 13.4689C24.8451 12.917 25.606 12.1209 26.0361 11.6867C26.2174 11.5075 26.2033 11.2097 26.0033 11.0517C25.8831 10.9567 25.7543 10.855 25.6262 10.7542C25.4494 10.6188 25.2513 10.4635 25.0631 10.3159L25.063 10.3159C24.8113 10.1185 24.5773 9.93505 24.4353 9.83153C24.223 9.66341 23.9913 9.49529 23.8893 9.42123L23.8564 9.39734C23.7819 9.34306 23.7075 9.28879 23.6827 9.26165C23.6579 9.23451 23.3105 8.98123 22.897 8.70081C22.4835 8.42039 21.5985 7.88669 20.9121 7.51581C20.2339 7.13589 19.4482 6.72883 19.1753 6.59314C18.9024 6.4665 18.3483 6.21321 17.9347 6.0323C17.5212 5.86043 16.8182 5.58001 16.3633 5.41718C15.9085 5.25436 15.2386 5.04631 14.8747 4.9649C14.4942 4.86539 13.8657 4.79303 13.386 4.79303C12.9311 4.79303 12.4101 4.83825 12.2281 4.89253C12.0462 4.95585 11.7567 5.11868 11.5913 5.25436C11.4011 5.40814 11.2274 5.67047 11.1364 5.9147C11.0537 6.14085 10.9876 6.50268 10.9958 6.72882C11.0041 6.96402 11.1033 7.37108 11.2274 7.67863C11.3515 7.97715 11.5748 8.3842 11.7154 8.58321C11.856 8.78222 12.162 9.14405 12.3935 9.37924C12.6168 9.62348 13.0882 10.0215 13.4273 10.2748C13.7664 10.519 14.5687 10.9984 15.2055 11.3422C15.8423 11.6859 16.719 12.093 17.149 12.2468C17.5791 12.4005 18.0092 12.5634 18.1001 12.6086C18.1911 12.6538 18.5964 12.7895 19.0099 12.9161C19.413 13.0396 20.0047 13.1974 20.3484 13.2891L20.3745 13.2961C20.7136 13.3775 21.061 13.5132 21.1437 13.5946C21.2264 13.676 21.2925 13.8388 21.2925 13.9655C21.2925 14.0921 21.2264 14.2549 21.1519 14.3273C21.0362 14.4358 20.7384 14.463 19.5971 14.463C18.3483 14.463 18.1415 14.4811 17.852 14.6439C17.5708 14.7977 17.5129 14.8791 17.4964 15.1414C17.4716 15.3947 17.5295 15.5485 17.7859 15.9103C17.9678 16.1636 18.3482 16.5616 18.646 16.8058ZM34.517 15.8651C33.8884 15.0962 32.9704 14.0107 32.4824 13.4679C31.9862 12.9162 31.2253 12.1201 30.7953 11.6859C30.6145 11.5072 30.6285 11.2104 30.8279 11.0528C30.9483 10.9577 31.0773 10.8559 31.2055 10.7549C31.3824 10.6195 31.5804 10.4642 31.7686 10.3167C32.0204 10.1193 32.2545 9.93573 32.3965 9.83219C32.6089 9.66399 32.8407 9.49579 32.9427 9.42177L32.9755 9.39796C33.0499 9.34368 33.1244 9.2894 33.1492 9.26226C33.174 9.23512 33.5214 8.98182 33.9349 8.70138C34.3485 8.42094 35.2335 7.88721 35.92 7.51631C36.5982 7.13636 37.3839 6.72927 37.6569 6.59357C37.9298 6.46692 38.484 6.21362 38.8975 6.03269C39.3111 5.86081 40.0141 5.58037 40.469 5.41753C40.9239 5.2547 41.5939 5.04663 41.9578 4.96521C42.3383 4.8657 42.9669 4.79333 43.4466 4.79333C43.9015 4.79333 44.4226 4.83856 44.6045 4.89284C44.7865 4.95617 45.076 5.119 45.2414 5.2547C45.4316 5.40849 45.6053 5.67083 45.6963 5.91509C45.779 6.14125 45.8452 6.50311 45.8369 6.72927C45.8286 6.96447 45.7294 7.37156 45.6053 7.67914C45.4813 7.97767 45.2579 8.38476 45.1173 8.58378C44.9767 8.7828 44.6707 9.14466 44.4391 9.37987C44.2158 9.62412 43.7443 10.0222 43.4052 10.2755C43.0661 10.5197 42.2638 10.9992 41.627 11.3429C40.9901 11.6867 40.1134 12.0938 39.6833 12.2476C39.2532 12.4014 38.8231 12.5642 38.7321 12.6094C38.6411 12.6547 38.2358 12.7904 37.8223 12.917C37.4191 13.0405 36.8272 13.1984 36.4835 13.29L36.4576 13.297C36.1185 13.3784 35.7711 13.5141 35.6884 13.5955C35.6057 13.6769 35.5395 13.8398 35.5395 13.9664C35.5395 14.0931 35.6057 14.2559 35.6801 14.3283C35.7959 14.4368 36.0937 14.464 37.2351 14.464C38.484 14.464 38.6908 14.4821 38.9802 14.6449C39.2615 14.7987 39.3193 14.8801 39.3359 15.1424C39.3607 15.3957 39.3028 15.5495 39.0464 15.9114C38.8644 16.1647 38.484 16.5627 38.1862 16.807C37.8967 17.0422 37.2433 17.4583 36.7471 17.7207C36.5883 17.8046 36.3983 17.8987 36.1975 17.9938C35.8658 17.5489 35.1255 16.6095 34.517 15.8651Z" fill="white"/>
</svg>
