<svg width="33" height="17" viewBox="0 0 33 17" fill="none" xmlns="http://www.w3.org/2000/svg">
<path fill-rule="evenodd" clip-rule="evenodd" d="M3.47109 0.777196C3.43194 0.771843 3.14321 0.793254 2.8349 0.820016C2.52659 0.852131 2.11063 0.921714 1.91977 0.980592C1.72402 1.03947 1.42551 1.16258 1.25912 1.25892C1.08784 1.34992 0.828468 1.55866 0.676762 1.72459C0.47612 1.9494 0.388027 2.09927 0.324409 2.31872C0.270576 2.50606 0.236328 2.78975 0.236328 3.09484C0.236328 3.36782 0.27058 3.71573 0.314625 3.89772C0.353775 4.07435 0.436966 4.31522 0.490799 4.43297C0.549522 4.55073 0.68166 4.78089 0.794216 4.94146C0.901878 5.10204 1.12699 5.38572 1.28848 5.57306C1.45487 5.7604 1.75338 6.04943 1.95403 6.21536C2.15467 6.38129 2.33085 6.53651 2.34553 6.55257C2.35919 6.57249 2.55075 6.7175 2.7823 6.89278L2.8349 6.9326C3.08937 7.11994 3.47598 7.38757 3.69131 7.52138C3.90663 7.65519 4.31281 7.89606 5.11049 8.34567L4.62112 8.38314C4.35196 8.40455 3.96535 8.46878 3.76471 8.52765C3.56407 8.58653 3.29002 8.69358 3.153 8.76316C3.02087 8.8381 2.80064 9.00938 2.6734 9.1539C2.54127 9.29307 2.41404 9.49646 2.37978 9.59816C2.35042 9.69986 2.32595 9.95143 2.32595 10.1602C2.32595 10.4439 2.35531 10.6044 2.4483 10.8292C2.51681 11.0005 2.69298 11.2574 2.86426 11.4448C3.02086 11.6214 3.28513 11.8623 3.44662 11.98C3.60811 12.0924 3.936 12.2905 4.18068 12.4189C4.42537 12.542 4.80708 12.7187 5.03708 12.8097C5.26709 12.9007 5.69774 13.0452 5.99136 13.1308C6.28499 13.2111 6.66181 13.3075 6.8233 13.3396C6.98479 13.3717 7.51332 13.4359 7.9978 13.4841C8.48228 13.5269 9.25059 13.5858 9.7106 13.6126C9.87143 13.6219 10.058 13.6326 10.2481 13.6432L10.217 13.6937C9.94787 14.138 9.65912 14.6305 9.57102 14.7911C9.53904 14.8494 9.5064 14.9091 9.47664 14.9636C9.42444 15.0591 9.38106 15.1385 9.36547 15.1658C9.341 15.2086 9.24802 15.3799 9.16482 15.5405C9.08162 15.7011 8.91522 16.0383 8.79287 16.2899C8.67541 16.5415 8.59221 16.7556 8.60689 16.7717C8.62157 16.7877 8.73413 16.761 8.85649 16.7181C9.0082 16.6646 9.13056 16.5682 9.23823 16.4237C9.32632 16.306 9.4242 16.1614 9.44867 16.1025C9.47804 16.0437 9.53187 15.958 9.57102 15.9152C9.60528 15.8724 9.68848 15.7493 9.757 15.6475C9.82062 15.5458 9.98212 15.3157 10.1143 15.139C10.1833 15.0432 10.2552 14.9458 10.3113 14.8699C10.3585 14.8059 10.3945 14.7571 10.4079 14.7376C10.4422 14.6947 10.5205 14.5823 10.5792 14.4967C10.6428 14.411 10.8092 14.1916 10.9463 14.0149C11.0063 13.9425 11.1004 13.827 11.209 13.6932C11.2963 13.6983 11.387 13.7035 11.4763 13.7086C11.7559 13.7245 12.0223 13.7396 12.133 13.7517C12.2798 13.7624 14.0171 13.7945 15.9893 13.8159C16.0797 13.817 16.1707 13.6266 16.26 13.44C16.346 13.2603 16.4303 13.0841 16.5108 13.0849C16.5908 13.0841 16.6701 13.2606 16.7509 13.4405C16.8348 13.6274 16.9204 13.8179 17.01 13.8169C18.9823 13.7954 20.7197 13.7633 20.8666 13.7526C20.9773 13.7405 21.2437 13.7254 21.5234 13.7095C21.6129 13.7044 21.7038 13.6992 21.7913 13.694C21.8993 13.8271 21.9929 13.9419 22.0526 14.014C22.1896 14.1906 22.356 14.4101 22.4196 14.4957C22.4784 14.5814 22.5567 14.6938 22.5909 14.7366C22.6044 14.7562 22.6403 14.8048 22.6875 14.8688C22.7435 14.9447 22.8155 15.0422 22.8846 15.138C23.0167 15.3147 23.1782 15.5448 23.2418 15.6465C23.3103 15.7482 23.3935 15.8713 23.4278 15.9141C23.4669 15.957 23.5207 16.0426 23.5501 16.1015C23.5746 16.1604 23.6724 16.3049 23.7605 16.4226C23.8682 16.5671 23.9905 16.6635 24.1422 16.717C24.2646 16.7598 24.3771 16.7866 24.3918 16.7705C24.4065 16.7545 24.3233 16.5404 24.2059 16.2888C24.0835 16.0372 23.9171 15.7 23.8339 15.5395C23.7507 15.3789 23.6578 15.2076 23.6333 15.1648C23.6177 15.1375 23.5742 15.0579 23.5219 14.9622C23.4922 14.9079 23.4597 14.8483 23.4278 14.7901C23.3397 14.6295 23.0509 14.1371 22.7818 13.6928L22.7519 13.6441C22.9419 13.6335 23.1284 13.6228 23.2891 13.6134C23.7492 13.5867 24.5175 13.5278 25.0021 13.485C25.4866 13.4368 26.0151 13.3726 26.1766 13.3404C26.3381 13.3083 26.715 13.212 27.0086 13.1317C27.3023 13.046 27.733 12.9015 27.963 12.8105C28.193 12.7195 28.5747 12.5429 28.8194 12.4198C29.0641 12.2913 29.392 12.0932 29.5535 11.9808C29.7151 11.863 29.9793 11.6222 30.1359 11.4455C30.3072 11.2582 30.4834 11.0012 30.5519 10.8299C30.6449 10.6051 30.6743 10.4445 30.6743 10.1608C30.6743 9.95206 30.6498 9.70048 30.6205 9.59877C30.5862 9.49707 30.459 9.29366 30.3268 9.15448C30.1996 9.00995 29.9793 8.83866 29.8472 8.76372C29.7102 8.69413 29.4361 8.58707 29.2354 8.52819C29.0348 8.46931 28.6481 8.40508 28.379 8.38366L27.8896 8.34619C28.6873 7.89655 29.0935 7.65567 29.3088 7.52185C29.5242 7.38803 29.9108 7.12038 30.1653 6.93303L30.2181 6.89307L30.2182 6.89302C30.4496 6.71782 30.6411 6.57289 30.6547 6.55297C30.6694 6.53692 30.8456 6.38168 31.0462 6.21574C31.2469 6.0498 31.5454 5.76074 31.7118 5.57339C31.8733 5.38604 32.0985 5.10234 32.2061 4.94175C32.3187 4.78116 32.4508 4.55099 32.5096 4.43323C32.5634 4.31546 32.6466 4.07458 32.6858 3.89794C32.7298 3.71594 32.7641 3.368 32.7641 3.095C32.7641 2.78989 32.7298 2.50618 32.676 2.31883C32.6124 2.09936 32.5243 1.94948 32.3236 1.72466C32.1719 1.55872 31.9125 1.34996 31.7412 1.25896C31.5748 1.1626 31.2763 1.03949 31.0805 0.980606C30.8896 0.921724 30.4736 0.852137 30.1653 0.820019C29.857 0.793255 29.5682 0.771841 29.5291 0.777196C29.5111 0.777196 29.4363 0.782846 29.3279 0.791032C29.2004 0.800661 29.0264 0.813799 28.8439 0.825373C28.5062 0.852137 27.9385 0.911018 27.5812 0.953841C27.2289 0.996665 26.5437 1.11978 26.0641 1.22149C25.5893 1.32854 24.9531 1.48378 24.6595 1.56942C24.3658 1.65507 23.8911 1.80495 23.6072 1.90666C23.3234 2.00836 22.9172 2.1636 22.7018 2.2546C22.4865 2.34024 22.0901 2.51153 21.8209 2.64C21.5517 2.76312 21.033 3.03077 20.6708 3.22882C20.3086 3.42688 19.7654 3.7427 19.4717 3.93541C19.1781 4.12276 18.8796 4.31546 18.8159 4.35828C18.7474 4.40111 18.3853 4.65805 18.0084 4.9364C17.6267 5.21475 17.1324 5.60016 16.9024 5.79286C16.6693 5.9881 16.33 5.98775 16.0969 5.79251C15.8669 5.59982 15.3727 5.21444 14.991 4.93611C14.6141 4.65778 14.252 4.40086 14.1835 4.35804C14.1199 4.31522 13.8213 4.12253 13.5277 3.93519C13.2341 3.7425 12.6909 3.4267 12.3288 3.22865C11.9666 3.03061 11.4479 2.76298 11.1787 2.63988C10.9096 2.51141 10.5132 2.34013 10.2979 2.25449C10.0825 2.1635 9.67635 2.00828 9.39251 1.90658C9.10868 1.80488 8.63398 1.65501 8.34036 1.56937C8.04673 1.48373 7.41055 1.32851 6.93585 1.22146C6.45627 1.11976 5.77114 0.99665 5.41879 0.953829C5.06155 0.911009 4.49388 0.852132 4.15621 0.825369C3.97369 0.813796 3.79975 0.800659 3.67226 0.79103C3.56389 0.782845 3.48907 0.777196 3.47109 0.777196ZM14.4086 12.0336C14.7023 12.1032 15.1916 12.2102 15.4853 12.2691C15.6288 12.2979 15.8109 12.3331 15.9893 12.3665C16.0679 12.3812 16.1187 12.2564 16.1773 12.1127C16.2517 11.93 16.3387 11.7166 16.5109 11.7207C16.6788 11.7247 16.7591 11.9343 16.828 12.114C16.8831 12.2576 16.9308 12.3822 17.0101 12.3673C17.1885 12.3339 17.3706 12.2987 17.5142 12.2699C17.8078 12.211 18.2972 12.104 18.5909 12.0344C18.8845 11.9594 19.2956 11.8524 19.4963 11.7935C19.6171 11.7548 19.809 11.6909 20.0045 11.6239L19.9875 11.6054C19.5226 11.1023 18.8815 10.4385 18.5634 10.1227C18.2404 9.81229 17.663 9.26634 17.2715 8.91842C16.8307 8.52674 16.1686 8.5273 15.7278 8.91899C15.3363 9.26693 14.7588 9.81292 14.4358 10.1234C14.1177 10.4392 13.4766 11.103 13.0116 11.6061L12.9958 11.6234C13.1911 11.6903 13.3826 11.7541 13.5033 11.7927C13.7039 11.8516 14.115 11.9587 14.4086 12.0336ZM10.7188 10.476C10.89 10.6152 11.2767 10.8614 11.5703 11.0166C11.6643 11.0663 11.7768 11.122 11.8957 11.1783C12.0925 10.9145 12.5298 10.3598 12.8893 9.91998C13.2612 9.46498 13.8045 8.82264 14.0932 8.50146C14.3868 8.17494 14.8371 7.70388 15.0916 7.44694C15.1989 7.34091 15.1906 7.16471 15.0722 7.07121L14.8491 6.89517C14.7444 6.81504 14.6272 6.72316 14.5159 6.63587C14.3669 6.51907 14.2284 6.41047 14.1444 6.34921C14.0188 6.24972 13.8816 6.15022 13.8213 6.10641L13.8212 6.10637L13.8018 6.09229C13.7578 6.06017 13.7137 6.02806 13.6991 6.012C13.6844 5.99594 13.4788 5.84607 13.2341 5.68014C12.9895 5.51421 12.4658 5.19842 12.0597 4.97896C11.6584 4.75416 11.1935 4.51329 11.032 4.43301C10.8705 4.35807 10.5426 4.2082 10.2979 4.10115C10.0532 3.99945 9.63725 3.83352 9.3681 3.73718C9.09894 3.64083 8.70255 3.51772 8.48722 3.46955C8.26211 3.41067 7.89019 3.36785 7.60635 3.36785C7.33719 3.36785 7.02889 3.39462 6.92123 3.42673C6.81356 3.4642 6.64228 3.56054 6.54441 3.64083C6.43185 3.73182 6.32908 3.88705 6.27525 4.03157C6.22631 4.16538 6.18716 4.37948 6.19206 4.51329C6.19695 4.65246 6.25568 4.89332 6.32908 5.07531C6.40249 5.25194 6.53462 5.4928 6.61782 5.61056C6.70101 5.72832 6.88208 5.94242 7.0191 6.08158C7.15123 6.2261 7.43018 6.46161 7.63082 6.61148C7.83146 6.756 8.30615 7.03969 8.68297 7.24308C9.05979 7.44648 9.57853 7.68734 9.833 7.77833C10.0875 7.86933 10.3419 7.96567 10.3958 7.99243C10.4496 8.0192 10.6894 8.09949 10.9341 8.17442C11.1726 8.24745 11.5226 8.34083 11.726 8.39507L11.726 8.39507L11.7261 8.39511L11.7416 8.39923C11.9422 8.4474 12.1477 8.52769 12.1967 8.57586C12.2456 8.62403 12.2848 8.72038 12.2848 8.79531C12.2848 8.87025 12.2456 8.96659 12.2016 9.00942C12.1331 9.07365 11.9569 9.0897 11.2815 9.0897C10.5426 9.0897 10.4202 9.10041 10.249 9.19675C10.0826 9.28775 10.0483 9.33592 10.0385 9.49114C10.0239 9.64101 10.0581 9.73201 10.2098 9.94611C10.3175 10.096 10.5426 10.3315 10.7188 10.476ZM20.1099 9.91934C19.7379 9.46438 19.1947 8.82208 18.906 8.50093C18.6124 8.17442 18.1621 7.7034 17.9077 7.44648C17.8007 7.34075 17.809 7.16508 17.927 7.07185L18.1504 6.89559C18.255 6.81547 18.3722 6.72359 18.4836 6.6363C18.6326 6.51948 18.7711 6.41087 18.8551 6.3496C18.9808 6.25011 19.1179 6.15062 19.1783 6.10679L19.1783 6.10678L19.1977 6.09266C19.2418 6.06054 19.2858 6.02842 19.3005 6.01236C19.3152 5.99631 19.5207 5.84642 19.7654 5.68048C20.0101 5.51454 20.5338 5.19872 20.94 4.97926C21.3413 4.75443 21.8063 4.51355 21.9678 4.43326C22.1293 4.35832 22.4572 4.20844 22.7019 4.10138C22.9466 3.99967 23.3626 3.83374 23.6318 3.73738C23.9009 3.64103 24.2974 3.51791 24.5127 3.46974C24.7378 3.41086 25.1098 3.36803 25.3936 3.36803C25.6628 3.36803 25.9711 3.3948 26.0788 3.42692C26.1865 3.46439 26.3578 3.56074 26.4556 3.64103C26.5682 3.73203 26.671 3.88726 26.7248 4.03179C26.7738 4.16562 26.8129 4.37973 26.808 4.51355C26.8031 4.65273 26.7444 4.89361 26.671 5.07561C26.5976 5.25225 26.4654 5.49313 26.3822 5.6109C26.299 5.72866 26.118 5.94278 25.9809 6.08195C25.8488 6.22648 25.5698 6.46201 25.3692 6.61189C25.1685 6.75642 24.6938 7.04012 24.3169 7.24353C23.9401 7.44694 23.4213 7.68782 23.1668 7.77882C22.9123 7.86982 22.6578 7.96617 22.604 7.99294C22.5502 8.0197 22.3104 8.09999 22.0657 8.17494C21.8271 8.24799 21.4769 8.3414 21.2736 8.39565L21.2735 8.39566L21.2581 8.39976C21.0575 8.44793 20.8519 8.52823 20.803 8.5764C20.754 8.62458 20.7149 8.72093 20.7149 8.79587C20.7149 8.87081 20.754 8.96716 20.7981 9.00999C20.8666 9.07422 21.0428 9.09028 21.7182 9.09028C22.4572 9.09028 22.5795 9.10099 22.7508 9.19734C22.9172 9.28834 22.9515 9.33651 22.9613 9.49175C22.976 9.64163 22.9417 9.73263 22.79 9.94675C22.6823 10.0966 22.4572 10.3322 22.281 10.4767C22.1097 10.6159 21.7231 10.8621 21.4294 11.0173C21.3355 11.067 21.2231 11.1226 21.1043 11.1789C20.908 10.9157 20.4699 10.3598 20.1099 9.91934Z" fill="white"/>
</svg>
